<?xml version="1.0" encoding="utf-8"?>
<svg width="1392" height="509" viewBox="0 0 1392 509" version="1.1" xmlns="http://www.w3.org/2000/svg">
  <path d="M 20.678 207 C 18.497 223.579 19.392 244.135 23.096 262.5 C 35.672 324.854 82.399 376.687 143.822 396.421 C 162.424 402.397 175.465 404.315 197.5 404.315 C 224.701 404.315 244.663 400.386 267.788 390.479 C 333.378 362.381 376.559 296.676 375.883 226 C 375.769 214.008 374.653 202.78 373.796 205 C 373.478 205.825 372.226 210.775 371.014 216 C 360.898 259.62 330.841 300.834 291.5 325.028 C 246.489 352.71 191.58 359.061 141 342.436 C 127.291 337.929 106.916 327.66 95 319.251 C 82.704 310.574 60.45 288.326 51.738 276 C 39.263 258.351 27.823 232.352 23.136 211 L 21.27 202.5 L 20.678 207" stroke="none" fill="#296928" fill-rule="evenodd"/>
  <path d="M 157.333 54.619 C 100.213 84.875, 77.019 153.368, 104.472 210.720 C 115.050 232.819, 130.960 250.147, 152 262.481 C 190.125 284.830, 237.731 283.775, 275.797 259.738 C 279.261 257.550, 281.961 255.629, 281.797 255.468 C 281.634 255.307, 277.454 256.256, 272.510 257.578 C 244.045 265.186, 213.599 261.691, 186.609 247.716 C 155.893 231.812, 133.013 201.271, 125.392 166 C 122.865 154.304, 122.837 130.774, 125.336 119 C 130.332 95.462, 140.855 75.462, 156.935 58.944 C 161.188 54.575, 164.555 51, 164.417 51 C 164.279 51, 161.091 52.629, 157.333 54.619" stroke="none" fill="#5ca543" fill-rule="evenodd"/>
  <path d="M 64.478 112.472 C 40.899 154.636 39.784 207.696 61.564 251.144 C 68.807 265.594 77.439 277.464 89.486 289.542 C 110.196 310.305 134.521 323.549 164.119 330.176 C 173.149 332.198 177.102 332.494 194.5 332.452 C 211.196 332.413 216.099 332.049 224.183 330.25 C 270.014 320.049 306.601 291.915 326.893 251.27 C 330.398 244.249 336 230.745 336 229.315 C 336 229.07 333.375 232.161 330.166 236.184 C 305.524 267.086 269.944 287.212 231.375 292.067 C 217.177 293.854 194.198 292.75 181 289.648 C 121.498 275.659 77.255 229.401 66.297 169.724 C 63.759 155.898 64.006 129.605 66.797 116.545 C 67.967 111.07 68.757 106.424 68.553 106.22 C 68.349 106.016 66.516 108.829 64.478 112.472" stroke="none" fill="#5c873a" fill-rule="evenodd"/>
  <path d="M 952.500 168.644 C 929.517 172.100, 913.982 186.558, 906.988 211 C 903.937 221.664, 903.123 246.790, 905.406 259.868 C 909.520 283.445, 921.716 299.759, 940.660 307.030 C 948.780 310.147, 964.962 310.871, 974 308.521 C 993.064 303.565, 1006.817 288.728, 1012.484 267 C 1014.757 258.289, 1015.658 231.925, 1014.057 220.980 C 1009.426 189.304, 991.109 170.356, 963.500 168.679 C 959.100 168.412, 954.150 168.396, 952.500 168.644 M 452 239 L 452 308 461 308 L 470 308 470 277.500 L 470 247 499 247 L 528 247 528 240 L 528 233 499 233 L 470 233 470 209 L 470 185 503.500 185 L 537 185 537 177.500 L 537 170 494.500 170 L 452 170 452 239 M 560 239 L 560 308 601.500 308 L 643 308 643 301 L 643 294 610.500 294 L 578 294 578 232 L 578 170 569 170 L 560 170 560 239 M 680.500 238.102 C 666.200 275.589, 654.344 306.669, 654.154 307.169 C 653.957 307.686, 657.776 307.953, 663.011 307.789 L 672.214 307.500 674.437 301.500 C 675.659 298.200, 678.585 290.212, 680.939 283.750 L 685.218 272 714.409 272 L 743.601 272 750.050 289.991 L 756.500 307.981 765.660 307.991 L 774.820 308 768.422 291.250 C 764.902 282.038, 753.071 251.100, 742.129 222.500 L 722.235 170.500 714.367 170.222 L 706.500 169.944 680.500 238.102 M 773.222 171.250 C 773.462 171.938, 784.872 202.981, 798.579 240.234 L 823.500 307.969 831.652 307.984 C 839.646 308, 839.824 307.946, 840.789 305.250 C 842.007 301.851, 888.448 176.555, 889.900 172.750 L 890.950 170 881.225 170.008 L 871.500 170.016 853.588 221.758 C 830.822 287.523, 831.907 284.591, 830.980 282.898 C 830.559 282.129, 822.088 257.875, 812.155 229 C 802.222 200.125, 793.579 175.037, 792.949 173.250 L 791.804 170 782.295 170 C 775.122 170, 772.893 170.307, 773.222 171.250 M 1043 238.901 L 1043 308 1052 308 L 1061 308 1061 279.976 L 1061 251.952 1077.563 252.226 L 1094.125 252.500 1108.908 280 L 1123.691 307.500 1133.346 307.786 C 1138.655 307.944, 1143 307.845, 1143 307.567 C 1143 307.290, 1135.754 293.970, 1126.897 277.968 C 1118.040 261.966, 1110.952 248.746, 1111.147 248.590 C 1111.341 248.434, 1113.826 247.061, 1116.668 245.539 C 1128.702 239.094, 1136.005 227.625, 1136.798 213.923 C 1137.779 196.980, 1130.754 182.999, 1118 176.512 C 1107.398 171.119, 1104.514 170.720, 1072.750 170.246 L 1043 169.802 1043 238.901 M 1225.506 237.750 C 1211.312 275.012, 1199.493 306.063, 1199.242 306.750 C 1198.899 307.691, 1201.014 308, 1207.810 308 L 1216.835 308 1218.431 303.750 C 1219.309 301.413, 1222.227 293.425, 1224.916 286 L 1229.803 272.500 1259.152 272.500 L 1288.500 272.500 1294.976 290.250 L 1301.453 308 1310.226 308 C 1315.052 308, 1319 307.630, 1319 307.178 C 1319 306.725, 1308.161 278.038, 1294.912 243.428 C 1281.664 208.817, 1269.932 178.137, 1268.841 175.250 L 1266.856 170 1259.084 170 L 1251.312 170 1225.506 237.750 M 1340 239 L 1340 308 1349 308 L 1358 308 1358 239 L 1358 170 1349 170 L 1340 170 1340 239 M 952.132 184.027 C 945.211 185.467, 939.564 188.690, 934.528 194.074 C 925.248 203.995, 922.044 215.448, 922.017 238.792 C 921.989 263.468, 925.576 275.812, 935.635 285.661 C 943.124 292.992, 949.677 295.310, 961.500 294.808 C 968.248 294.521, 971.675 293.856, 975.195 292.150 C 983.923 287.920, 990.668 279.266, 994.717 267.099 C 997.092 259.964, 997.688 226.621, 995.620 216.619 C 991.435 196.385, 980.116 185.148, 962.386 183.625 C 959.149 183.346, 954.534 183.528, 952.132 184.027 M 1061 211.500 L 1061 238 1077.290 238 C 1101.186 238, 1107.975 235.706, 1115.484 225.092 C 1117.991 221.547, 1118.526 219.723, 1118.832 213.658 C 1119.347 203.448, 1117.742 198.456, 1112.145 192.863 C 1105.341 186.064, 1100.829 185, 1078.818 185 L 1061 185 1061 211.500 M 713.198 195 C 707.858 209.163, 691 256.262, 691 257.017 C 691 257.633, 699.778 258, 714.500 258 C 727.425 258, 738 257.713, 738 257.362 C 738 256.467, 715.945 195.833, 714.953 194 C 714.303 192.800, 713.952 193, 713.198 195 M 1247.366 223.762 C 1241.242 240.668, 1235.906 255.287, 1235.509 256.250 C 1234.832 257.888, 1236.330 258, 1259 258 C 1277.943 258, 1283.117 257.728, 1282.767 256.750 C 1272.709 228.596, 1259.465 193.003, 1259.052 193.012 C 1258.748 193.019, 1253.489 206.857, 1247.366 223.762" stroke="none" fill="#fbfbfb" fill-rule="evenodd"/>
</svg>